[img]http://img687.imageshack.us/img687/6416/killingbonoarticle.jpg[/img]
[code]

[color=blue][size=5][b]Killing.Bono.2011.R5.XVID.AC3.HQ.Hive-CM8[/b][/size][/color]


[b]Thx Hive


CM8 Doing It Right The First Time :D


Source Russian DVD-9
Ubit.Bono.2011.P.DVD.ELEKTRI4KA
thx

Encode:
added sharpness,rgb and denoise
English 5.1 Audio was already on the russian dvd

Video: 720x304 @bitrate 1800 2pass
Audio: English AC3 5.1 @448
Sample: yes included[/b]


[url]http://www.imdb.com/title/tt1535101/[/url]


General
Complete name                    : Killing.Bono.2011.R5.XVID.AC3.HQ.Hive-CM8.avi
Format                           : AVI
Format/Info                      : Audio Video Interleave
File size                        : 1.72 GiB
Duration                         : 1h 48mn
Overall bit rate                 : 2 256 Kbps
Writing application              : Nandub v1.0rc2
Writing library                  : Nandub build 1853/release

Video
ID                               : 0
Format                           : MPEG-4 Visual
Format profile                   : Advanced Simple@L5
Format settings, BVOP            : 2
Format settings, QPel            : Yes
Format settings, GMC             : No warppoints
Format settings, Matrix          : Default (H.263)
Muxing mode                      : Packed bitstream
Codec ID                         : XVID
Codec ID/Hint                    : XviD
Duration                         : 1h 48mn
Bit rate                         : 1 798 Kbps
Width                            : 720 pixels
Height                           : 304 pixels
Display aspect ratio             : 2.35:1
Frame rate                       : 25.000 fps
Color space                      : YUV
Chroma subsampling               : 4:2:0
Bit depth                        : 8 bits
Scan type                        : Progressive
Compression mode                 : Lossy
Bits/(Pixel*Frame)               : 0.329
Stream size                      : 1.37 GiB (80%)
Writing library                  : XviD 1.2.1 (UTC 2008-12-04)

Audio
ID                               : 1
Format                           : AC-3
Format/Info                      : Audio Coding 3
Mode extension                   : CM (complete main)
Codec ID                         : 2000
Duration                         : 1h 48mn
Bit rate mode                    : Constant
Bit rate                         : 448 Kbps
Channel(s)                       : 6 channels
Channel positions                : Front: L C R, Side: L R, LFE
Sampling rate                    : 48.0 KHz
Bit depth                        : 16 bits
Compression mode                 : Lossy
Stream size                      : 349 MiB (20%)
Alignment                        : Split accross interleaves
Interleave, duration             : 40 ms (1.00 video frame)
Interleave, preload duration     : 500 ms

Cast:
Ben Barnes	 ... 	Neil McCormick
Robert Sheehan	... 	Ivan McCormick
Krysten Ritter	... 	Gloria
Pete Postlethwaite	... 	Karl
Justine Waddell	... 	Danielle
Peter Serafinowicz	... 	Hammond

Plot:
Two brothers attempt to become global rock stars but can only look on as 
old school friends U2 become the biggest band in the world. 
[/code]
Screens:
[img]http://img854.imageshack.us/img854/697/kkkiikiiki.png[/img]
[img]http://img153.imageshack.us/img153/6500/95896236.png[/img]
[img]http://img156.imageshack.us/img156/3083/kikiuu.png[/img]
[img]http://img215.imageshack.us/img215/8678/kkiiki.png[/img]
[img]http://img34.imageshack.us/img34/7194/kkikiiki.png[/img]
[img]http://img690.imageshack.us/img690/9476/kkikikkiikiiki.png[/img]
[img]http://img5.imageshack.us/img5/8022/kkikkiikiiki.png[/img]
[img]http://img268.imageshack.us/img268/1683/kkikkiikkiikiiki.png[/img]
[img]http://img854.imageshack.us/img854/7929/kkikkikiikkiikiiki.png[/img]